<?xml version="1.0" encoding="UTF-8"?>
<svg width="24" height="24" version="1.1" viewBox="0 0 24 24" xmlns="http://www.w3.org/2000/svg">
    <path fill="#ffffff" d="M 12,3 C 11.5,3 11,3.5 11,4 v 0.5 C 9.8,4.8 8.8,5.3 7.9,6 L 7.5,5.6 C 7.1,5.2 6.5,5.2 6.1,5.6 L 5.6,6.1 C 5.2,6.5 5.2,7.1 5.6,7.5 L 6,7.9 C 5.3,8.8 4.8,9.8 4.5,11 H 4 C 3.5,11 3,11.5 3,12 c 0,0.5 0.5,1 1,1 h 0.5 c 0.3,1.2 0.8,2.2 1.5,3.1 L 5.6,16.5 c -0.4,0.4 -0.4,1 0,1.4 l 0.5,0.5 c 0.4,0.4 1,0.4 1.4,0 L 7.9,18 c 0.9,0.7 1.9,1.2 3.1,1.5 V 20 c 0,0.5 0.5,1 1,1 0.5,0 1,-0.5 1,-1 v -0.5 c 1.2,-0.3 2.2,-0.8 3.1,-1.5 l 0.4,0.4 c 0.4,0.4 1,0.4 1.4,0 l 0.5,-0.5 c 0.4,-0.4 0.4,-1 0,-1.4 L 18,16.1 c 0.7,-0.9 1.2,-1.9 1.5,-3.1 H 20 c 0.5,0 1,-0.5 1,-1 0,-0.5 -0.5,-1 -1,-1 h -0.5 C 19.2,9.8 18.7,8.8 18,7.9 L 18.4,7.5 c 0.4,-0.4 0.4,-1 0,-1.4 L 17.9,5.6 C 17.5,5.2 16.9,5.2 16.5,5.6 L 16.1,6 C 15.2,5.3 14.2,4.8 13,4.5 V 4 C 13,3.5 12.5,3 12,3 Z m 0,6 c 1.7,0 3,1.3 3,3 0,1.7 -1.3,3 -3,3 -1.7,0 -3,-1.3 -3,-3 0,-1.7 1.3,-3 3,-3 z"/>
</svg> 